<svg xmlns="http://www.w3.org/2000/svg" width="69" height="65" viewBox="0 0 69 65" fill="none"><g clip-path="url(#clip0)"><path d="M66.6709 51.6428C67.5247 51.6428 68.6113 51.5651 68.9218 50.7886C69.077 50.3226 68.9994 49.8567 68.8442 49.3907C67.8352 45.5854 66.1276 41.9355 63.644 38.9068C61.1603 35.8782 57.7452 33.5484 54.0197 32.5389C48.7418 31.2187 42.9207 32.7718 38.8071 36.3441C36.5562 38.2079 34.8487 40.6153 33.6845 43.3334C32.9859 45.0418 30.8903 49.7013 32.8307 50.4779C34.1501 51.0215 36.8667 50.6332 38.3414 50.6332C40.2041 50.7109 41.9893 50.7886 43.8521 50.7886C47.4224 50.9439 51.0703 51.0215 54.6406 51.1768C58.6766 51.4098 62.635 51.4875 66.6709 51.6428Z" fill="#009EB0"></path><path d="M65.1187 52.8076C65.9725 52.8076 67.0591 52.73 67.3695 51.9534C67.5248 51.4874 67.4471 51.0215 67.2919 50.5555C66.2829 46.7503 64.5754 43.1003 62.0917 40.0717C59.608 37.043 56.1153 35.1015 52.4674 33.7037C46.8791 31.6846 41.3684 33.9367 37.2548 37.5089C35.004 39.3727 33.2964 41.7802 32.1322 44.4982C31.4337 46.129 29.2604 50.7885 31.2008 51.5651C32.5203 52.1087 35.2368 51.7204 36.7115 51.7204C38.5743 51.7981 40.3594 51.8757 42.2222 51.8757C45.7925 52.0311 49.4404 52.1087 53.0107 52.264C57.0467 52.5747 61.0827 52.73 65.1187 52.8076Z" stroke="#574E56" stroke-width="1.73" stroke-miterlimit="10" stroke-linecap="round" stroke-linejoin="round"></path><path d="M47.1106 37.5866C45.8687 38.9067 44.4717 40.5376 44.7821 42.3237C44.8597 42.712 45.015 43.1003 45.1702 43.4886C46.4121 46.3619 47.9644 49.1576 49.8271 51.6427C51.3018 48.6917 52.6213 45.5854 53.6303 42.479C53.7079 42.0907 53.8631 41.7801 53.7079 41.3918C53.6303 41.1588 53.3974 40.9259 53.1646 40.7705C52.3108 40.0716 51.4571 39.4504 50.6809 38.7514C50.5257 38.6738 50.3704 38.5185 50.2928 38.3631C50.2152 38.1302 50.2928 37.8972 50.2928 37.6642C50.9914 35.2568 50.5257 32.4611 47.2658 33.3153C46.3344 33.5483 45.7911 34.0143 45.6359 34.9462C45.5583 35.4898 46.4121 38.2855 47.1106 37.5866Z" fill="#F39800"></path><path d="M40.3588 27.1804C42.6873 29.5879 46.1023 30.8304 49.4398 30.4421C51.2249 30.2091 53.0101 29.5879 54.3295 28.3453C55.649 27.0251 56.4252 25.239 56.9685 23.4528C57.7446 20.8125 58.1327 18.1721 58.0551 15.454C58.0551 13.2796 57.667 10.9499 56.1147 9.39669C55.2609 8.62011 54.1743 8.0765 53.0877 7.68821C50.5264 6.75631 47.6546 6.13504 45.0933 7.06694C43.9291 7.53289 42.9201 8.23182 42.0663 9.08606C36.7885 13.7456 35.081 21.6667 40.3588 27.1804Z" stroke="#574E56" stroke-width="1.73" stroke-miterlimit="10" stroke-linecap="round" stroke-linejoin="round"></path><path d="M40.3588 27.1804C42.6873 29.5879 46.1023 30.8304 49.4398 30.4421C51.2249 30.2091 53.0101 29.5879 54.3295 28.3453C55.649 27.0251 56.4252 25.239 56.9685 23.4528C57.7446 20.8125 58.1327 18.1721 58.0551 15.454C58.0551 13.2796 57.667 10.9499 56.1147 9.39669C55.2609 8.62011 54.1743 8.0765 53.0877 7.68821C50.5264 6.75631 47.6546 6.13504 45.0933 7.06694C43.9291 7.53289 42.9201 8.23182 42.0663 9.08606C36.7885 13.7456 35.081 21.6667 40.3588 27.1804Z" fill="white" stroke="#574E56" stroke-width="1.73" stroke-miterlimit="10" stroke-linecap="round" stroke-linejoin="round"></path><path d="M59.2184 17.0072C59.6065 17.2401 60.0721 17.3955 60.5378 17.3178C61.7797 17.1625 61.9349 15.3763 61.7021 14.2115C60.7707 10.1732 58.2094 6.44563 54.7943 4.03823C54.5615 3.88291 54.3286 3.72759 54.1734 3.41696C54.0182 3.02867 54.251 2.71803 54.3286 2.32974C54.4062 1.63082 53.9405 1.00955 53.3196 0.776577C52.6987 0.543602 51.9225 0.931894 51.6121 1.55316C49.2836 0.155311 46.2566 0.388286 44.0058 1.78614C41.6773 3.10633 40.0474 5.43608 39.0384 7.92114C38.0294 10.4062 37.4861 13.0466 37.0204 15.687C36.9428 16.2306 36.8652 16.8518 37.2532 17.2401C37.5637 17.4731 37.9518 17.4731 38.2622 17.4731C41.2116 17.3178 44.0834 16.1529 46.4119 14.3668C45.7133 14.988 45.0924 15.6093 44.3939 16.1529C44.2386 16.3082 44.0058 16.5412 44.0058 16.7742C44.0058 17.3178 44.7043 17.4731 45.2476 17.3955C48.5851 17.0072 50.7583 15.1434 53.0092 12.8136C54.5615 11.2604 54.5615 12.503 55.5705 13.9785C56.5018 15.221 57.7437 16.3082 59.2184 17.0072Z" fill="#F39800"></path><path d="M57.6676 17.0071C58.0557 17.2401 58.5214 17.3954 58.9871 17.3178C60.2289 17.1625 60.3841 15.3763 60.1513 14.2114C59.2199 10.1732 56.6586 6.44561 53.2435 4.0382C53.0107 3.88289 52.7778 3.72757 52.6226 3.41694C52.545 3.1063 52.7002 2.71801 52.7778 2.40738C52.8554 1.70846 52.3898 1.08719 51.7688 0.854214C51.1479 0.621239 50.3718 1.00953 50.0613 1.6308C47.7328 0.232948 44.7058 0.465923 42.455 1.86377C40.1265 3.18396 38.4966 5.51371 37.4876 7.99878C36.4786 10.4838 35.9353 13.1242 35.4696 15.7646C35.392 16.3082 35.3144 16.9295 35.7025 17.3178C36.0129 17.5507 36.401 17.5507 36.7115 17.5507C39.6608 17.3954 42.5326 16.2306 44.8611 14.4444C44.1625 15.0657 43.5416 15.6869 42.8431 16.2306C42.6878 16.3859 42.455 16.6188 42.455 16.8518C42.455 17.3954 43.1535 17.5507 43.6968 17.4731C47.0343 17.0848 49.2075 15.221 51.4584 12.8913C53.0107 11.3381 53.0107 12.5806 54.0197 14.0561C55.0287 15.221 56.2705 16.3082 57.6676 17.0071Z" stroke="#574E56" stroke-width="1.73" stroke-miterlimit="10" stroke-linecap="round" stroke-linejoin="round"></path><path d="M47.1106 37.5866C45.8687 38.9067 44.4717 40.5376 44.7821 42.3237C44.8597 42.712 45.015 43.1003 45.1702 43.4886C46.4121 46.3619 47.9644 49.1576 49.8271 51.6427C51.3018 48.6917 52.6213 45.5854 53.6303 42.479C53.7079 42.0907 53.8631 41.7801 53.7079 41.3918C53.6303 41.1588 53.3974 40.9259 53.1646 40.7705C52.3108 40.0716 51.4571 39.4504 50.6809 38.7514C50.5257 38.6738 50.3704 38.5185 50.2928 38.3631C50.2152 38.1302 50.2928 37.8972 50.2928 37.6642C50.9914 35.2568 50.5257 32.4611 47.2658 33.3153C46.3344 33.5483 45.7911 34.0143 45.6359 34.9462C45.5583 35.4898 46.4121 38.2855 47.1106 37.5866Z" stroke="#574E56" stroke-width="1.73" stroke-miterlimit="10" stroke-linecap="round" stroke-linejoin="round"></path><path d="M42.6104 44.1099C44.3956 46.4396 46.4912 49.7013 48.6644 51.6427C50.8376 51.0215 52.8556 48.3034 54.3303 46.5949C55.805 44.8088 56.9693 42.7897 58.0559 40.8482C58.5216 40.0716 58.9873 39.0621 58.5992 38.2855C58.2887 37.5089 57.3573 37.1983 56.5812 36.9653C55.805 36.7323 54.796 36.4994 54.1751 36.9653C53.9423 37.1206 53.787 37.4313 53.6318 37.6642C52.2347 39.6833 50.0615 43.4109 48.6644 45.5077C45.8703 43.4886 45.327 38.3632 43.2313 35.5675C43.0761 35.3345 42.8433 35.1015 42.5328 34.9462C40.3596 34.1696 39.273 36.1887 39.5834 37.8195C39.9715 40.0716 41.2134 42.2461 42.6104 44.1099Z" fill="white"></path><path d="M42.6119 44.11C44.3971 46.4397 46.4927 49.7014 48.6659 51.6428C50.8391 51.0216 52.8571 48.3035 54.3318 46.595C55.8065 44.8089 56.9708 42.7898 58.0574 40.8483C58.5231 40.0717 58.9888 39.0622 58.6007 38.2856C58.2902 37.509 57.3588 37.1984 56.5827 36.9654C55.8065 36.7324 54.7975 36.4995 54.1766 36.9654C53.9438 37.1207 53.7885 37.4314 53.6333 37.6643C52.2362 39.6834 50.063 43.411 48.6659 45.5078C45.8718 43.4887 45.3285 38.3633 43.2328 35.5676C43.0776 35.3346 42.8448 34.9463 42.5343 34.9463C39.8954 35.1793 39.2745 36.2665 39.5849 37.8973C39.973 40.0717 41.2148 42.2462 42.6119 44.11Z" stroke="#574E56" stroke-width="1.73" stroke-miterlimit="10" stroke-linecap="round" stroke-linejoin="round"></path><path d="M30.8148 64.3786H11.7991C9.393 64.3786 7.375 62.3595 7.375 59.9521V24.9282C7.375 22.5208 9.393 20.5017 11.7991 20.5017H30.7372C33.1433 20.5017 35.1613 22.5208 35.1613 24.9282V59.9521C35.1613 62.3595 33.2209 64.3786 30.8148 64.3786Z" fill="white" stroke="#574E56" stroke-width="1.73" stroke-miterlimit="10"></path><path d="M7.45312 23.5305H35.1618" stroke="#574E56" stroke-width="1.73" stroke-miterlimit="10"></path><path d="M7.45312 57.2341H35.1618" stroke="#574E56" stroke-width="1.73" stroke-miterlimit="10"></path><path d="M21.268 62.8256C22.3825 62.8256 23.286 61.9216 23.286 60.8065C23.286 59.6913 22.3825 58.7874 21.268 58.7874C20.1535 58.7874 19.25 59.6913 19.25 60.8065C19.25 61.9216 20.1535 62.8256 21.268 62.8256Z" stroke="#574E56" stroke-width="1.73" stroke-miterlimit="10"></path><path d="M24.3714 49.5461L1.86294 49.0802C1.1644 49.0802 0.621094 48.5366 0.621094 47.8376V32.073H25.3804V48.4589C25.458 49.0802 24.9923 49.5461 24.3714 49.5461Z" fill="#F39800"></path><path d="M24.3714 49.5461L1.86294 49.0802C1.1644 49.0802 0.621094 48.5366 0.621094 47.8376V32.073H25.3804V48.4589C25.458 49.0802 24.9923 49.5461 24.3714 49.5461Z" stroke="#574E56" stroke-width="1.73" stroke-miterlimit="10" stroke-linecap="round" stroke-linejoin="round"></path><path d="M0.699219 32.073L12.4191 41.625L25.4585 32.073" stroke="#574E56" stroke-width="1.73" stroke-miterlimit="10" stroke-linecap="round" stroke-linejoin="round"></path></g><defs><clipPath id="clip0"><rect width="69" height="65" fill="white"></rect></clipPath></defs></svg>